<svg width="24" height="24" viewBox="0 0 24 24" fill="none" xmlns="http://www.w3.org/2000/svg"><path fill-rule="evenodd" clip-rule="evenodd" d="M12 1.25a4.75 4.75 0 1 0 0 9.5 4.75 4.75 0 0 0 0-9.5ZM8.75 6a3.25 3.25 0 1 1 6.5 0 3.25 3.25 0 0 1-6.5 0Z" fill="#EFEFEF"/><path d="M18 3.25a.75.75 0 0 0 0 1.5c1.377 0 2.25.906 2.25 1.75S19.377 8.25 18 8.25a.75.75 0 0 0 0 1.5c1.937 0 3.75-1.333 3.75-3.25S19.937 3.25 18 3.25ZM6.75 4A.75.75 0 0 0 6 3.25c-1.937 0-3.75 1.333-3.75 3.25S4.063 9.75 6 9.75a.75.75 0 0 0 0-1.5c-1.376 0-2.25-.906-2.25-1.75S4.624 4.75 6 4.75A.75.75 0 0 0 6.75 4Z" fill="#EFEFEF"/><path fill-rule="evenodd" clip-rule="evenodd" d="M12 12.25c-1.784 0-3.434.48-4.659 1.297-1.22.814-2.091 2.02-2.091 3.453 0 1.433.871 2.64 2.091 3.453 1.225.816 2.875 1.297 4.659 1.297 1.784 0 3.434-.48 4.659-1.297 1.22-.814 2.091-2.02 2.091-3.453 0-1.433-.872-2.64-2.091-3.453-1.225-.816-2.875-1.297-4.659-1.297ZM6.75 17c0-.776.472-1.57 1.423-2.204.947-.631 2.298-1.046 3.827-1.046 1.53 0 2.88.415 3.827 1.046.951.634 1.423 1.428 1.423 2.204 0 .776-.472 1.57-1.423 2.204-.947.631-2.298 1.046-3.827 1.046-1.53 0-2.88-.415-3.827-1.046C7.222 18.57 6.75 17.776 6.75 17Z" fill="#EFEFEF"/><path d="M19.267 13.84a.75.75 0 0 1 .894-.573c.961.211 1.828.592 2.472 1.119.643.526 1.117 1.25 1.117 2.114 0 .865-.474 1.588-1.117 2.114-.644.527-1.51.908-2.472 1.119a.75.75 0 0 1-.322-1.466c.793-.173 1.426-.472 1.844-.814.418-.342.567-.677.567-.953 0-.276-.149-.61-.567-.953-.418-.342-1.051-.64-1.844-.814a.75.75 0 0 1-.572-.894ZM3.84 13.267a.75.75 0 1 1 .32 1.466c-.792.173-1.425.472-1.843.814-.418.342-.567.677-.567.953 0 .276.149.61.567.953.418.342 1.051.64 1.844.814a.75.75 0 0 1-.322 1.466c-.962-.211-1.828-.592-2.472-1.119C.724 18.088.25 17.364.25 16.5c0-.865.474-1.588 1.117-2.114.644-.527 1.51-.908 2.472-1.119Z" fill="#EFEFEF"/></svg>