<svg width="24" height="24" viewBox="0 0 24 24" fill="none" xmlns="http://www.w3.org/2000/svg"><path fill-rule="evenodd" clip-rule="evenodd" d="M18.5 1.25a.75.75 0 0 1 .75.75v2.75H22a.75.75 0 0 1 0 1.5h-2.75V9a.75.75 0 0 1-1.5 0V6.25H15a.75.75 0 0 1 0-1.5h2.75V2a.75.75 0 0 1 .75-.75Z" fill="#EFEFEF"/><path fill-rule="evenodd" clip-rule="evenodd" d="M12 1.25h-.057c-2.309 0-4.118 0-5.53.19-1.444.194-2.584.6-3.479 1.494-.895.895-1.3 2.035-1.494 3.48-.19 1.411-.19 3.22-.19 5.529v.114c0 2.309 0 4.118.19 5.53.194 1.444.6 2.584 1.494 3.479.895.895 2.035 1.3 3.48 1.494 1.411.19 3.22.19 5.529.19h.114c2.309 0 4.118 0 5.53-.19 1.444-.194 2.584-.6 3.479-1.494.895-.895 1.3-2.035 1.494-3.48.19-1.411.19-3.22.19-5.529V12a.75.75 0 0 0-1.5 0c0 2.378-.002 4.086-.176 5.386l-.022.152-2.774-2.497a3.75 3.75 0 0 0-4.665-.28l-.298.21a1.25 1.25 0 0 1-1.602-.14l-4.29-4.29a3.05 3.05 0 0 0-4.165-.138l-.507.443c.005-1.792.03-3.153.175-4.232.172-1.279.5-2.05 1.069-2.62.57-.569 1.34-.896 2.619-1.068 1.3-.174 3.008-.176 5.386-.176a.75.75 0 0 0 0-1.5ZM2.926 17.386c.172 1.279.5 2.05 1.069 2.62.57.569 1.34.896 2.619 1.068 1.3.174 3.008.176 5.386.176s4.086-.002 5.386-.176c1.279-.172 2.05-.5 2.62-1.069a3.04 3.04 0 0 0 .604-.865.755.755 0 0 1-.112-.083l-3.223-2.9a2.25 2.25 0 0 0-2.8-.17l-.297.21a2.75 2.75 0 0 1-3.526-.305l-4.29-4.29a1.55 1.55 0 0 0-2.117-.07L2.75 12.84c.003 1.948.023 3.405.176 4.546Z" fill="#EFEFEF"/></svg>