<svg xmlns="http://www.w3.org/2000/svg" width="16" height="16" viewBox="0 0 16 16" fill="none"><g clip-path="url(#a)"><path fill-rule="evenodd" clip-rule="evenodd" d="M7.962.833H9a.5.5 0 1 1 0 1H8c-1.585 0-2.724.001-3.59.118-.853.115-1.367.332-1.747.712-.38.38-.597.894-.712 1.746-.116.867-.118 2.006-.118 3.591 0 1.586.002 2.724.118 3.591.115.852.333 1.366.712 1.746.38.38.894.598 1.746.712.867.117 2.006.118 3.591.118 1.586 0 2.725-.001 3.591-.118.852-.114 1.366-.332 1.746-.712.38-.38.598-.894.712-1.746.117-.867.118-2.005.118-3.591V7a.5.5 0 0 1 1 0v1.038c0 1.54 0 2.745-.127 3.686-.13.963-.4 1.723-.996 2.32-.597.596-1.357.867-2.32.996-.94.127-2.147.127-3.686.127h-.076c-1.539 0-2.745 0-3.686-.127-.963-.13-1.723-.4-2.32-.996-.596-.597-.867-1.357-.996-2.32-.127-.94-.127-2.147-.127-3.686v-.076c0-1.54 0-2.745.127-3.686.13-.963.4-1.723.996-2.32.597-.596 1.357-.867 2.32-.996C5.217.833 6.423.833 7.962.833Zm3.219.684a2.335 2.335 0 0 1 3.302 3.303L10.05 9.252a6.475 6.475 0 0 1-.576.537 3.558 3.558 0 0 1-.657.407 6.46 6.46 0 0 1-.739.274l-1.936.646a.995.995 0 0 1-1.258-1.259l.645-1.936c.11-.332.18-.54.274-.738a3.59 3.59 0 0 1 .407-.658c.135-.173.29-.328.537-.576l4.433-4.432Zm2.595.707a1.335 1.335 0 0 0-1.888 0l-.252.251a2.583 2.583 0 0 0 .684 1.205 2.583 2.583 0 0 0 1.205.684l.25-.251a1.335 1.335 0 0 0 0-1.889Zm-1.04 2.927a3.596 3.596 0 0 1-1.123-.764c-.38-.38-.616-.78-.764-1.124l-3.37 3.37c-.278.278-.387.388-.48.507a2.558 2.558 0 0 0-.292.473c-.065.136-.114.282-.239.655l-.287.864.688.688.863-.288c.373-.124.52-.174.655-.239.168-.08.327-.178.473-.292.119-.093.229-.202.507-.48l3.37-3.37Z" fill="#877EFF"/></g><defs><clipPath id="a"><path fill="#fff" d="M0 0h16v16H0z"/></clipPath></defs></svg>