<svg xmlns="http://www.w3.org/2000/svg" width="24" height="24" viewBox="0 0 24 24" fill="none"><path d="m9.066 17.615-.372.472.372-.472Zm2.647-11.684-.432.416a.6.6 0 0 0 .865 0l-.433-.416Zm2.648 11.684-.372-.47.372.47Zm-4.924-.47c-1.317-1.04-2.767-2.06-3.917-3.355C4.391 12.518 3.6 11.03 3.6 9.1H2.4c0 2.305.96 4.065 2.223 5.487 1.242 1.399 2.825 2.517 4.071 3.5l.743-.943ZM3.6 9.098c0-1.894 1.07-3.485 2.536-4.155 1.427-.653 3.338-.475 5.145 1.403l.865-.832c-2.114-2.197-4.56-2.553-6.51-1.662C3.727 4.726 2.4 6.756 2.4 9.099h1.2Zm5.095 8.988c.446.352.923.725 1.404 1.006.482.282 1.026.507 1.614.507v-1.2c-.283 0-.61-.11-1.008-.343-.398-.232-.81-.552-1.268-.913l-.742.943Zm6.037 0c1.246-.983 2.83-2.101 4.072-3.5 1.263-1.422 2.223-3.182 2.223-5.488h-1.2c0 1.931-.792 3.42-1.92 4.69-1.15 1.296-2.6 2.317-3.918 3.355l.743.943Zm6.295-8.988c0-2.343-1.326-4.373-3.237-5.246-1.95-.891-4.395-.535-6.509 1.662l.865.832c1.806-1.878 3.717-2.056 5.145-1.403 1.465.67 2.536 2.261 2.536 4.155h1.2Zm-7.038 8.045c-.458.361-.87.68-1.267.913-.398.233-.725.343-1.009.343v1.2c.588 0 1.133-.225 1.614-.507.482-.281.958-.654 1.405-1.006l-.743-.943Z" fill="#5C5C7B"/></svg>