<svg width="24" height="24" viewBox="0 0 24 24" fill="none" xmlns="http://www.w3.org/2000/svg"><path fill-rule="evenodd" clip-rule="evenodd" d="M5.675 4.02c-1.773.81-3.072 2.737-3.072 5.036 0 2.348.96 4.158 2.338 5.71 1.136 1.278 2.51 2.337 3.85 3.37.319.246.635.49.946.735.562.443 1.064.832 1.547 1.114.484.283.873.412 1.204.412.33 0 .72-.129 1.203-.412.484-.282.985-.67 1.547-1.114.311-.245.628-.489.946-.734 1.34-1.034 2.715-2.093 3.85-3.372 1.378-1.55 2.338-3.36 2.338-5.71 0-2.298-1.298-4.225-3.071-5.035-1.723-.788-4.037-.58-6.236 1.706a.802.802 0 0 1-1.155 0C9.711 3.44 7.397 3.232 5.675 4.02Zm6.813.037c-2.471-2.21-5.238-2.52-7.48-1.495C2.64 3.644 1 6.158 1 9.056c0 2.848 1.187 5.021 2.743 6.774 1.246 1.403 2.771 2.577 4.118 3.615.306.235.602.463.884.685.547.431 1.135.891 1.73 1.24.595.347 1.275.63 2.013.63.737 0 1.417-.283 2.012-.63.596-.349 1.183-.809 1.73-1.24.282-.222.578-.45.884-.685 1.347-1.038 2.872-2.212 4.119-3.615 1.556-1.753 2.742-3.926 2.742-6.774 0-2.898-1.64-5.412-4.008-6.494-2.242-1.025-5.009-.716-7.48 1.495Z" fill="#EFEFEF"/></svg>