<svg xmlns="http://www.w3.org/2000/svg" width="20" height="20" viewBox="0 0 20 20" fill="none"><path fill-rule="evenodd" clip-rule="evenodd" d="M7.5 1.042a3.958 3.958 0 1 0 0 7.916 3.958 3.958 0 0 0 0-7.916ZM4.792 5a2.708 2.708 0 1 1 5.417 0 2.708 2.708 0 0 1-5.417 0Z" fill="#5C5C7B"/><path d="M12.5 1.875a.625.625 0 1 0 0 1.25 1.875 1.875 0 1 1 0 3.75.625.625 0 1 0 0 1.25 3.125 3.125 0 1 0 0-6.25Z" fill="#5C5C7B"/><path fill-rule="evenodd" clip-rule="evenodd" d="M3.065 11.267c1.167-.666 2.736-1.059 4.435-1.059 1.7 0 3.27.393 4.435 1.059 1.149.656 2.024 1.658 2.024 2.9 0 1.241-.875 2.243-2.024 2.9-1.166.666-2.735 1.058-4.435 1.058-1.7 0-3.268-.392-4.435-1.059-1.148-.656-2.023-1.658-2.023-2.9 0-1.24.875-2.243 2.023-2.899Zm.62 1.085c-.962.55-1.393 1.215-1.393 1.815 0 .6.43 1.264 1.394 1.814.945.54 2.292.894 3.814.894 1.523 0 2.87-.354 3.815-.894.963-.55 1.394-1.215 1.394-1.814 0-.6-.431-1.264-1.394-1.815-.945-.54-2.292-.894-3.815-.894-1.522 0-2.87.354-3.814.894Z" fill="#5C5C7B"/><path d="M15.134 11.056a.625.625 0 0 0-.268 1.221c.66.145 1.189.394 1.537.679.349.285.472.564.472.794 0 .209-.1.454-.377.712-.28.259-.708.498-1.261.665a.625.625 0 0 0 .36 1.197c.686-.207 1.298-.526 1.752-.947.454-.422.776-.978.776-1.627 0-.72-.395-1.323-.93-1.762-.537-.438-1.26-.756-2.06-.932Z" fill="#5C5C7B"/></svg>