<svg xmlns="http://www.w3.org/2000/svg" width="24" height="24" viewBox="0 0 24 24" fill="none"><path fill-rule="evenodd" clip-rule="evenodd" d="M16 6.75a1.25 1.25 0 1 0 0 2.5 1.25 1.25 0 0 0 0-2.5ZM13.25 8a2.75 2.75 0 1 1 5.5 0 2.75 2.75 0 0 1-5.5 0Z" fill="#697C89"/><path fill-rule="evenodd" clip-rule="evenodd" d="M11.943 1.25h.114c2.309 0 4.118 0 5.53.19 1.444.194 2.584.6 3.479 1.494.895.895 1.3 2.035 1.494 3.48.19 1.411.19 3.22.19 5.529v.114c0 2.309 0 4.118-.19 5.53-.194 1.444-.6 2.584-1.494 3.479-.895.895-2.035 1.3-3.48 1.494-1.411.19-3.22.19-5.529.19h-.114c-2.309 0-4.118 0-5.53-.19-1.444-.194-2.584-.6-3.479-1.494-.895-.895-1.3-2.035-1.494-3.48-.19-1.411-.19-3.22-.19-5.529v-.114c0-2.309 0-4.118.19-5.53.194-1.444.6-2.584 1.494-3.479.895-.895 2.035-1.3 3.48-1.494 1.411-.19 3.22-.19 5.529-.19ZM3.995 20.005c-.57-.57-.897-1.34-1.069-2.619-.153-1.141-.173-2.597-.176-4.546l1.495-1.308a1.55 1.55 0 0 1 2.117.07l4.29 4.29a2.75 2.75 0 0 0 3.526.306l.298-.21a2.25 2.25 0 0 1 2.799.168l3.223 2.902a.866.866 0 0 0 .111.083 3.04 3.04 0 0 1-.604.864c-.57.57-1.34.897-2.619 1.069-1.3.174-3.008.176-5.386.176s-4.086-.002-5.386-.176c-1.279-.172-2.05-.5-2.62-1.069ZM6.614 2.926c-1.279.172-2.05.5-2.62 1.069-.569.57-.896 1.34-1.068 2.619-.145 1.08-.17 2.44-.175 4.233l.507-.444a3.05 3.05 0 0 1 4.165.139l4.29 4.29a1.25 1.25 0 0 0 1.602.138l.298-.21a3.75 3.75 0 0 1 4.665.281l2.774 2.497.022-.152c.174-1.3.176-3.008.176-5.386s-.002-4.086-.176-5.386c-.172-1.279-.5-2.05-1.069-2.62-.57-.569-1.34-.896-2.619-1.068-1.3-.174-3.008-.176-5.386-.176s-4.086.002-5.386.176Z" fill="#697C89"/></svg>