<svg xmlns="http://www.w3.org/2000/svg" width="24" height="24" viewBox="0 0 24 24" fill="none"><path d="M9.767 12a.744.744 0 1 1-1.488 0 .744.744 0 0 1 1.488 0Zm2.977 0a.744.744 0 1 1-1.488 0 .744.744 0 0 1 1.488 0Zm2.976 0a.744.744 0 1 1-1.488 0 .744.744 0 0 1 1.489 0Z" fill="#5C5C7B"/><path fill-rule="evenodd" clip-rule="evenodd" d="M20 12a8 8 0 1 0-15.165 3.562c.08.16.097.324.06.462l-.443 1.656a1.526 1.526 0 0 0 1.868 1.868l1.656-.443a.659.659 0 0 1 .462.06A8 8 0 0 0 20 12Zm-8-6.884a6.884 6.884 0 1 1-3.065 13.05 1.774 1.774 0 0 0-1.247-.14l-1.657.444a.41.41 0 0 1-.5-.501l.442-1.657a1.773 1.773 0 0 0-.139-1.247A6.884 6.884 0 0 1 12 5.117Z" fill="#5C5C7B"/></svg>