<svg xmlns="http://www.w3.org/2000/svg" width="24" height="24" viewBox="0 0 24 24" fill="none"><path fill-rule="evenodd" clip-rule="evenodd" d="m14.556 4.896.034.03 3.568 3.172c.666.592 1.218 1.083 1.597 1.528.398.468.682.972.682 1.596 0 .623-.284 1.127-.682 1.595-.38.445-.931.936-1.597 1.528l-3.568 3.171-.034.03c-.289.257-.558.497-.79.65-.229.151-.644.37-1.11.161-.465-.209-.577-.665-.616-.935-.04-.276-.04-.637-.04-1.022v-1.441c-1.29.09-2.597.432-3.74.99-1.346.655-2.42 1.584-3.003 2.694A.667.667 0 0 1 4 18.333c0-4.197 1.228-6.93 2.984-8.61C8.514 8.26 10.38 7.66 12 7.534v-1.49c0-.386 0-.746.04-1.022.038-.27.15-.726.616-.935.465-.209.88.01 1.108.16.233.154.502.394.79.65Zm-1.22.705c.101.086.221.192.368.322l3.531 3.14c.712.632 1.193 1.061 1.504 1.427.3.351.364.557.364.732 0 .174-.065.38-.364.73-.311.367-.792.796-1.504 1.429l-3.531 3.139-.367.323a28.537 28.537 0 0 1-.003-.49V14.27a.667.667 0 0 0-.667-.666c-1.7 0-3.467.403-4.992 1.146a9.13 9.13 0 0 0-2.223 1.501c.328-2.709 1.297-4.456 2.454-5.563 1.44-1.378 3.26-1.847 4.761-1.847a.667.667 0 0 0 .667-.666V6.089c0-.196 0-.356.003-.488Z" fill="#5C5C7B"/></svg>