<svg xmlns="http://www.w3.org/2000/svg" width="21" height="20" viewBox="0 0 21 20" fill="none"><path d="M15.797 1.345a.625.625 0 0 1 .858-.214l-.322.536.322-.536h.001l.001.001.003.002.008.005a1.084 1.084 0 0 1 .095.063 4.427 4.427 0 0 1 .9.875c.485.632.962 1.596.962 2.923s-.477 2.291-.963 2.923a4.423 4.423 0 0 1-.668.698 3.496 3.496 0 0 1-.326.24l-.008.005-.003.002h-.001s-.001.001-.323-.535l.322.536a.625.625 0 0 1-.647-1.07l.005-.002.034-.023a3.172 3.172 0 0 0 .625-.613c.347-.452.703-1.155.703-2.161s-.356-1.709-.704-2.16a3.171 3.171 0 0 0-.624-.614 1.2 1.2 0 0 0-.034-.023l-.005-.003a.625.625 0 0 1-.21-.855Z" fill="#5C5C7B"/><path fill-rule="evenodd" clip-rule="evenodd" d="M8.833 1.042a3.958 3.958 0 1 0 0 7.916 3.958 3.958 0 0 0 0-7.916ZM6.125 5a2.708 2.708 0 1 1 5.417 0 2.708 2.708 0 0 1-5.417 0Zm2.708 5.208c-1.7 0-3.268.393-4.435 1.059-1.148.656-2.023 1.658-2.023 2.9 0 1.241.875 2.243 2.023 2.9 1.167.666 2.736 1.058 4.435 1.058 1.7 0 3.27-.392 4.435-1.059 1.149-.656 2.024-1.658 2.024-2.9 0-1.24-.875-2.243-2.024-2.899-1.166-.666-2.735-1.059-4.435-1.059Zm-5.208 3.959c0-.6.43-1.264 1.394-1.815.945-.54 2.292-.894 3.814-.894 1.522 0 2.87.354 3.815.894.963.55 1.394 1.215 1.394 1.815 0 .6-.431 1.264-1.394 1.814-.945.54-2.293.894-3.815.894-1.522 0-2.87-.354-3.814-.894-.963-.55-1.394-1.215-1.394-1.814Z" fill="#5C5C7B"/><path d="M14.988 2.797a.625.625 0 0 0-.857.215l.207.853.006.004.053.04A1.413 1.413 0 0 1 14.875 5c0 .423-.148.709-.287.89a1.277 1.277 0 0 1-.244.24l-.006.005a.625.625 0 0 0 .65 1.068l-.321-.536.321.536.001-.001h.002l.002-.002.006-.004.016-.01a1.521 1.521 0 0 0 .182-.136 2.51 2.51 0 0 0 .382-.398c.277-.36.546-.908.546-1.652a2.67 2.67 0 0 0-.546-1.652 2.522 2.522 0 0 0-.518-.503 1.502 1.502 0 0 0-.046-.03L15 2.804l-.006-.005-.002-.001h-.002c0-.001 0-.002-.322.534l.321-.536Z" fill="#5C5C7B"/></svg>