<svg xmlns="http://www.w3.org/2000/svg" width="24" height="24" viewBox="0 0 24 24" fill="none"><path fill-rule="evenodd" clip-rule="evenodd" d="M17.245 5.165c-.835.149-1.962.523-3.543 1.05l-3.58 1.193c-1.271.424-2.192.731-2.842 1.008-.68.289-.922.49-1 .626a1.34 1.34 0 0 0 0 1.346c.078.136.32.337 1 .626.65.277 1.571.585 2.842 1.008l.06.02c.347.116.617.205.85.36.223.15.415.343.565.567.156.232.245.502.36.85a.814.814 0 0 1 .02.059c.425 1.271.732 2.192 1.009 2.842.289.68.49.922.626 1 .416.243.93.243 1.346 0 .135-.078.337-.32.626-1 .277-.65.584-1.571 1.008-2.842l1.193-3.58c.527-1.581.901-2.708 1.05-3.544.15-.84.035-1.196-.179-1.41-.214-.214-.57-.328-1.41-.18Zm-.192-1.08c.93-.166 1.768-.128 2.38.483.61.61.648 1.449.483 2.379-.165.924-.566 2.127-1.074 3.65l-1.217 3.654c-.413 1.24-.735 2.203-1.03 2.899-.286.672-.603 1.24-1.085 1.52-.757.44-1.693.44-2.45 0-.482-.28-.799-.849-1.084-1.52-.296-.696-.618-1.66-1.03-2.899l-.01-.026c-.144-.435-.188-.552-.25-.646a.964.964 0 0 0-.265-.264c-.094-.063-.211-.107-.646-.252l-.026-.008c-1.24-.413-2.203-.735-2.899-1.03-.671-.286-1.24-.603-1.52-1.085a2.437 2.437 0 0 1 0-2.45c.28-.482.849-.799 1.52-1.084.696-.296 1.66-.617 2.899-1.03l3.653-1.218c1.524-.508 2.727-.91 3.651-1.074Zm-.138 3.005a.549.549 0 0 1-.005.776l-2.926 2.894a.549.549 0 1 1-.772-.78l2.927-2.895a.549.549 0 0 1 .776.005Z" fill="#5C5C7B"/></svg>