<svg xmlns="http://www.w3.org/2000/svg" width="21" height="20" viewBox="0 0 21 20" fill="none"><path d="M4.44 13.447c-1.288-1.287-1.932-1.931-2.17-2.767-.24-.836-.035-1.723.374-3.498L2.88 6.16c.344-1.493.516-2.24 1.028-2.751.51-.511 1.258-.684 2.75-1.028l1.024-.236c1.775-.41 2.662-.615 3.498-.375.835.24 1.48.883 2.767 2.171l1.525 1.525c2.24 2.24 3.361 3.361 3.361 4.754 0 1.392-1.12 2.512-3.361 4.753-2.24 2.24-3.361 3.361-4.754 3.361-1.392 0-2.512-1.12-4.753-3.36L4.44 13.446Z" stroke="#5C5C7B" stroke-width="1.5"/><circle cx="7.672" cy="7.399" r="1.667" transform="rotate(-45 7.672 7.4)" stroke="#5C5C7B" stroke-width="1.5"/><path d="M10.118 15.416 15.934 9.6" stroke="#5C5C7B" stroke-width="1.5" stroke-linecap="round"/></svg>