<svg width="24" height="24" viewBox="0 0 24 24" fill="none" xmlns="http://www.w3.org/2000/svg"><path fill-rule="evenodd" clip-rule="evenodd" d="M12 1.25a4.75 4.75 0 1 0 0 9.5 4.75 4.75 0 0 0 0-9.5ZM8.75 6a3.25 3.25 0 1 1 6.5 0 3.25 3.25 0 0 1-6.5 0ZM12 12.25c-2.314 0-4.445.526-6.025 1.414C4.42 14.54 3.25 15.866 3.25 17.5v.102c-.001 1.162-.003 2.62 1.276 3.662.63.512 1.51.877 2.7 1.117 1.193.242 2.748.369 4.774.369s3.58-.127 4.774-.369c1.19-.24 2.07-.605 2.7-1.117 1.279-1.042 1.277-2.5 1.276-3.662V17.5c0-1.634-1.17-2.96-2.725-3.836-1.58-.888-3.711-1.414-6.025-1.414ZM4.75 17.5c0-.851.621-1.775 1.96-2.528 1.317-.74 3.185-1.222 5.29-1.222s3.973.482 5.29 1.222c1.339.753 1.96 1.677 1.96 2.528 0 1.308-.04 2.044-.724 2.6-.37.302-.99.597-2.05.811-1.057.214-2.502.339-4.476.339-1.974 0-3.42-.125-4.476-.339-1.06-.214-1.68-.509-2.05-.81-.684-.557-.724-1.293-.724-2.601Z" fill="#EFEFEF"/></svg>