<svg width="30" height="30" viewBox="0 0 30 30" fill="none" xmlns="http://www.w3.org/2000/svg"><path fill-rule="evenodd" clip-rule="evenodd" d="M27.833 15c0 7.088-5.745 12.833-12.833 12.833S2.167 22.088 2.167 15 7.912 2.167 15 2.167 27.833 7.912 27.833 15ZM30 15c0 8.284-6.716 15-15 15-8.284 0-15-6.716-15-15C0 6.716 6.716 0 15 0c8.284 0 15 6.716 15 15Zm-6.724-6.724a1.552 1.552 0 1 1-3.103 0 1.552 1.552 0 0 1 3.103 0Zm-8.112 4.564.19-2.498.165-2.16a6.837 6.837 0 1 0 6.299 7.338v-.001l-2.16-.165-2.498-.19L15 15l.164-2.16Zm3.798 4.634-4.127-.314-2.16-.164.164-2.16.314-4.127a4.665 4.665 0 0 0-2.32 2.181 4.67 4.67 0 0 0 8.129 4.584Z" fill="url(#a)"/><defs><linearGradient id="a" x1="15" y1="0" x2="15" y2="30" gradientUnits="userSpaceOnUse"><stop stop-color="#DD7EFF"/><stop offset=".461" stop-color="#685DFF"/><stop offset="1" stop-color="#2152FF"/></linearGradient></defs></svg>